{"title":"Dallas Buyers Club 2013 DVDSCR XVID AC3 HQ Hive-CM8","uid":9431169,"size":1820088663,"categoryP":"video","categoryS":"movies","magnet":"?xt=urn:btih:104578abe6148180bc30357f766895af06b78e7e&amp;dn=Dallas+Buyers+Club+2013+DVDSCR+XVID+AC3+HQ+Hive-CM8&amp;tr=udp%3A%2F%2Ftracker.openbittorrent.com%3A80&amp;tr=udp%3A%2F%2Fopen.demonii.com%3A1337&amp;tr=udp%3A%2F%2Ftracker.coppersurfer.tk%3A6969&amp;tr=udp%3A%2F%2Fexodus.desync.com%3A6969","seeders":7,"leechers":4,"uploader":"HeroMaster","files":-1,"time":1388806488,"description":":::::::: CM8 PRESENTS ::::::::\n\n\n:::: Dallas Buyers Club 2013 DVDSCR XVID AC3 HQ Hive-CM8 ::::\n\n\n::Information::\n\n\nCM8 Doing It Right The First Time\n\n\nSource: DVDScr DVD-R\n\nBig Thx to DRs\n\nEncode:\n\nwas hoping to get this - great movie!\nquality was ok on this, a bit dark perhaps and reddish sometimes but may be intended fixed brightness and only slightly rgb, added sharpness and denoise\n\ngot very nice\nenjoy  - till next scr \n\n\nVideo: 720x304 @bitrate 1600 2pass\nAudio: English AC3 5.1 @448\nSample: yes included\n\n &lt;a href=&quot;\nhttp://www.imdb.com/title/tt0790636/&quot; rel=&quot;nofollow&quot; target=&quot;_NEW&quot;&gt;\nhttp://www.imdb.com/title/tt0790636/&lt;/a&gt;\n\n\nGeneral\nFormat                         : AVI\nFormat/Info                    : Audio Video Interleave\nFile size                      : 1.68 GiB\nDuration                       : 1h 56mn\nOverall bit rate               : 2 058 Kbps\nWriting application            : Nandub v1.0rc2\nWriting library                : Nandub build 1853/release\n\nVideo\nID                             : 0\nFormat                         : MPEG-4 Visual\nFormat profile                 : Advanced Simple@L5\nFormat settings, BVOP          : 2\nFormat settings, QPel          : Yes\nFormat settings, GMC           : No warppoints\nFormat settings, Matrix        : Default (H.263)\nMuxing mode                    : Packed bitstream\nCodec ID                       : XVID x264 will not save you\nCodec ID/Hint                  : XviD\nDuration                       : 1h 56mn\nBit rate                       : 1 600 Kbps\nWidth                          : 720 pixels\nHeight                         : 304 pixels\nDisplay aspect ratio           : 2.35:1\nFrame rate                     : 23.976 fps\nColor space                    : YUV\nChroma subsampling             : 4:2:0\nBit depth                      : 8 bits\nScan type                      : Progressive\nCompression mode               : Lossy\nBits/(Pixel*Frame)             : 0.305\nStream size                    : 1.31 GiB (78%)\nWriting library                : XviD 1.2.1 (UTC 2008-12-04)\n\nAudio\nID                             : 1\nFormat                         : AC-3\nFormat/Info                    : Audio Coding 3\nMode extension                 : CM (complete main)\nFormat settings, Endianness    : Big\nCodec ID                       : 2000\nDuration                       : 1h 56mn\nBit rate mode                  : Constant\nBit rate                       : 448 Kbps\nChannel(s)                     : 6 channels\nChannel positions              : Front: L C R, Side: L R, LFE\nSampling rate                  : 48.0 KHz\nBit depth                      : 16 bits\nCompression mode               : Lossy\nDelay relative to video        : 26ms\nStream size                    : 375 MiB (22%)\nAlignment                      : Split accross interleaves\nInterleave, duration           : 42 ms (1.00 video frame)\nInterleave, preload duration   : 500 ms\n\n\nPlot:\n\n\nIn 1985 Dallas, electrician and hustler Ron Woodroof works around the system \nto help AIDS patients get the medication they need after he is himself diagnosed with the disease.\n\n\nCast:\n\n\nJared Leto ... Rayon\nMatthew McConaughey ... Ron Woodroof\nJennifer Garner ... Dr. Eve Saks\nSteve Zahn ... Tucker\nDenis O'Hare ... Dr. Sevard\n\n\nGreetz and Respect::\n\n\nALL CREDIT Goes to CM8 for Encoding and ABG for Distribution.\n\n\nPoster:\n\n &lt;a href=&quot;\nhttp://i.imgur.com/qVKcqPM.jpg&quot; rel=&quot;nofollow&quot; target=&quot;_NEW&quot;&gt;\nhttp://i.imgur.com/qVKcqPM.jpg&lt;/a&gt;\n\n\nScreenshots:\n\n &lt;a href=&quot;\nhttp://i.imgur.com/siVxWQf.jpg&quot; rel=&quot;nofollow&quot; target=&quot;_NEW&quot;&gt;\nhttp://i.imgur.com/siVxWQf.jpg&lt;/a&gt;\n\n\nSEED AND ENJOY!","torrent":{"xt":"urn:btih:104578abe6148180bc30357f766895af06b78e7e","amp;dn":"Dallas+Buyers+Club+2013+DVDSCR+XVID+AC3+HQ+Hive-CM8","amp;tr":["udp%3A%2F%2Ftracker.openbittorrent.com%3A80","udp%3A%2F%2Fopen.demonii.com%3A1337","udp%3A%2F%2Ftracker.coppersurfer.tk%3A6969","udp%3A%2F%2Fexodus.desync.com%3A6969"],"infoHash":"104578abe6148180bc30357f766895af06b78e7e","infoHashBuffer":{"type":"Buffer","data":[16,69,120,171,230,20,129,128,188,48,53,127,118,104,149,175,6,183,142,126]},"announce":[],"urlList":[]}}